<svg xmlns="http://www.w3.org/2000/svg" xmlns:xlink="http://www.w3.org/1999/xlink" viewBox="0 0 338.32 921.28"><defs><style>.cls-1{fill:url(#linear-gradient);}.cls-2{fill:#1c193a;}.cls-3{fill:#fff;}</style><linearGradient id="linear-gradient" x1="495.2" y1="380.37" x2="674.23" y2="1048.53" gradientTransform="matrix(1, 0, 0, -1, -361, 1084.47)" gradientUnits="userSpaceOnUse"><stop offset="0.04" stop-color="#20dbf5"/><stop offset="0.13" stop-color="#20dbf5"/><stop offset="0.31" stop-color="#ac49df"/><stop offset="0.54" stop-color="#ff1048"/><stop offset="0.66" stop-color="#fe4408"/><stop offset="0.78" stop-color="#f7ff14"/><stop offset="0.95" stop-color="#5afe19"/></linearGradient></defs><title>Storyscript Logo Logomark</title><g id="Layer_2" data-name="Layer 2"><g id="Layer_1-2" data-name="Layer 1"><g id="feather"><path class="cls-1" d="M327.22,359.84c-18,9.56-49.41,28.18-74.2,52.9,23.57-12.89,53.83-26.09,70.36-33.05a359.17,359.17,0,0,1-26.67,77.11,156,156,0,0,1-8.43,15.38c-18.65,6.29-49.14,17.76-73.47,32.65,8.82-1,40.44-8.84,60.15-13.84-18,22.77-40.82,43.17-63.17,66.15-9.27,3.18-25.55,9.54-35.2,17.77,5.29-1.25,14.83-3.26,23.08-4.95C169.45,603,141.79,642.51,130,701.3c-.1-58.85-35.65-115.45-35.38-196.25,8.67,2.07,18.26,6.07,23.65,13.8-1.55-12.64-13.39-29.45-22.25-40.49a298.59,298.59,0,0,1,10.31-52.82,205.72,205.72,0,0,1,15.06-36.71c8.53,10.12,20.86,26.65,27.06,43.93-2-20.87-13.33-42.6-21-55.2,13-23.21,29.54-47.63,46.62-73.88a166.28,166.28,0,0,1,18.63,65c3.93-29-2.39-62.75-7.27-82.71,8.16-12.87,16.26-26.19,24-40A84,84,0,0,1,232.9,278.6c-2.35-16.41-10-35-15.64-47.13A463.61,463.61,0,0,0,239.8,182c4.25,1.89,13.76,16,13.22,22.57.81-10.33-4.09-23.13-9.23-33.46a345.74,345.74,0,0,0,14.5-55.81l10.82,7.18-9.6-14.87a315.62,315.62,0,0,0,1.92-74.41A818.25,818.25,0,0,1,312,164.06c-3.14,11.93-7.51,25.69-12.7,34.46,5.89-4.19,11.65-14.34,15.8-23.1a528.14,528.14,0,0,1,14.32,75.87c-8.35,15.32-21.59,40-32.14,61.34,12.45-11.4,25.36-31.85,33.58-46.15A391.15,391.15,0,0,1,327.22,359.84Z"/><path class="cls-2" d="M261.43,33.15A818.25,818.25,0,0,1,312,164.06c-3.14,11.93-7.51,25.69-12.7,34.46,5.89-4.19,11.65-14.34,15.8-23.1a528.14,528.14,0,0,1,14.32,75.87c-8.35,15.32-21.59,40-32.14,61.34,12.45-11.4,25.36-31.85,33.58-46.15a391.15,391.15,0,0,1-3.63,93.36c-18,9.56-49.41,28.18-74.2,52.9,23.57-12.89,53.83-26.09,70.36-33.05a359.17,359.17,0,0,1-26.67,77.11,156,156,0,0,1-8.43,15.38c-18.65,6.29-49.14,17.76-73.47,32.65,8.82-1,40.44-8.84,60.15-13.84-18,22.77-40.82,43.17-63.17,66.15-9.27,3.18-25.55,9.54-35.2,17.77,5.29-1.25,14.83-3.26,23.08-4.95C169.45,603,141.79,642.51,130,701.3c-.1-58.85-35.65-115.45-35.38-196.25,8.67,2.07,18.26,6.07,23.65,13.8-1.55-12.64-13.39-29.45-22.25-40.49a298.59,298.59,0,0,1,10.31-52.82,205.72,205.72,0,0,1,15.06-36.71c8.53,10.12,20.86,26.65,27.06,43.93-2-20.87-13.33-42.6-21-55.2,13-23.21,29.54-47.63,46.62-73.88a166.28,166.28,0,0,1,18.63,65c3.93-29-2.39-62.75-7.27-82.71,8.16-12.87,16.26-26.19,24-40A84,84,0,0,1,232.9,278.6c-2.35-16.41-10-35-15.64-47.13A463.61,463.61,0,0,0,239.8,182c4.4,3.1,13,15.66,13.23,22.47v.1s0-.06,0-.1c.76-10.31-4.12-23.07-9.24-33.36a345.74,345.74,0,0,0,14.5-55.81l10.82,7.18-9.6-14.87a315.62,315.62,0,0,0,1.92-74.41M252.13,0l3.13,33.72a309.69,309.69,0,0,1-1.89,73l-.3,2.35-.89,5.17A339.34,339.34,0,0,1,237.94,169l-.8,2.62L234,179.71a460.25,460.25,0,0,1-22.24,48.87l-1.43,2.72,1.3,2.79c1.31,2.81,2.7,5.92,4.09,9.22-.76-.7-1.54-1.38-2.33-2.05l-5.75-4.89L204,243c-6.83,12.24-14.62,25.24-23.8,39.73l-1.41,2.22.62,2.56c1.46,6,3.19,13.8,4.69,22.63q-2.13-4.69-4.54-9.29l-4.92-9.36-5.76,8.86q-5,7.69-9.93,15.18c-13.56,20.67-26.37,40.2-36.91,59.06l-1.77,3.16.41.66-.47-.55-4.29,8.13a212.45,212.45,0,0,0-15.51,37.82,304.89,304.89,0,0,0-10.54,54l-.26,2.52,1.59,2a167.24,167.24,0,0,1,13.72,19.51A68.37,68.37,0,0,0,96,499l-7.6-1.81,0,7.82c-.15,44.65,10.56,82.52,20,115.93,7.89,27.89,15.34,54.24,15.38,80.35l12.28,1.21c12.27-61.19,42.88-100.75,68.17-128.37l10.49-11.47,1.5-1.22c6.63-6.81,13.37-13.47,19.89-19.92,15.84-15.65,30.81-30.43,43.69-46.7l11.38-14.36L273.43,485l-6.93,1.75c9.25-3.66,17.55-6.6,23.76-8.69l2.1-.71,1.18-1.89a165.06,165.06,0,0,0,8.76-16A365.22,365.22,0,0,0,329.42,381L332,369.32,321,374c-5.43,2.29-12.49,5.31-20.38,8.81,11.54-7.56,22.05-13.49,29.54-17.47l2.72-1.45.49-3.05A397.79,397.79,0,0,0,337,266l-1.93-19.32a534.44,534.44,0,0,0-14-72.84l-4.48-16.06A826.59,826.59,0,0,0,267,30.43L252.13,0Z"/><path class="cls-2" d="M134.45,811.16A423.56,423.56,0,0,1,119,722.05a408.44,408.44,0,0,1,4.69-90,524.09,524.09,0,0,1,22.21-86.56c9.64-28.07,21.07-55.31,33.13-82.12,24.09-53.6,50.82-105.58,70.89-160.17a498,498,0,0,0,23.41-83.73,347.52,347.52,0,0,0,4.91-86.76l3-.26a353.52,353.52,0,0,1-1.74,88A503.88,503.88,0,0,1,259,306.27c-18.28,56-43.28,109.35-65.15,163.32-11,27-21.17,54.14-29.5,81.74A503.84,503.84,0,0,0,146,635.19a384.86,384.86,0,0,0-1.3,84.88c2.77,28.13,3.12,38.15,11.79,65.07Z"/><path id="Shape_2_copy" data-name="Shape 2 copy" class="cls-3" d="M258.23,285.22C240.62,358.79,158.46,492,136.42,625a415,415,0,0,0,6,164.17c1.38,5.64,10.78-.76,17.43-6.15.23.72.43,1.4.68,2.15l-22.1,26a424.85,424.85,0,0,1-15.41-89.11,408.45,408.45,0,0,1,4.71-90A523.1,523.1,0,0,1,150,545.49c9.62-28.07,21.07-55.31,33.11-82.12,24.08-53.6,48.77-105.58,68.85-160.17Q255.2,294.26,258.23,285.22Z"/></g><g id="ink_bottle" data-name="ink bottle"><path class="cls-2" d="M164.75,778c33.23-8.1,67.48,1.78,95,13.94-8.41,34.75-19.46,79.14-26.57,102.87-2.87,9.61-11.4,22.37-26.11,22.37h-143c-14.77,0-23.32-12.8-26.21-22.43-7-23.36-17.79-66.6-26.15-101.11C43.66,805.9,103.65,792.88,164.75,778Z"/><path class="cls-2" d="M207.05,921.28h-143c-16.64,0-26.65-13.67-30.17-25.37-9-30.11-24-91.78-32.12-125.86-5.5-23,2.93-34.63,11-40.3C34,714.79,59.18,706.83,81,701c4-1.09,5.15-1.94,5.15-3.86V683.32H79a4.13,4.13,0,0,1-4.14-4.13V650.05A4.13,4.13,0,0,1,79,645.92H191.87a4.12,4.12,0,0,1,4.13,4.13v29.14a4.13,4.13,0,0,1-4.13,4.13h-7.19v13.84a3.9,3.9,0,0,0,2.91,3.43c22.77,6.14,49,14.47,70.59,29.72,8,5.66,16.41,17.22,10.94,40.19h0c-10,41.85-23.65,97.59-32,125.47C233.63,907.64,223.66,921.28,207.05,921.28ZM83.16,675.06h7.16a4.12,4.12,0,0,1,4.13,4.13v18c0,8.81-8.34,11.05-11.09,11.79C62,714.63,37.66,722.3,17.49,736.5c-8.66,6.11-11.25,16.75-7.69,31.63,6.52,27.37,22.71,94.38,32,125.4,2.7,9,10.15,19.49,22.26,19.49h143c12.07,0,19.48-10.46,22.15-19.42,8.3-27.69,21.92-83.27,31.88-125h0c3.53-14.83,1-25.43-7.66-31.52-20.58-14.5-45.91-22.54-68-28.49a12.17,12.17,0,0,1-9-11.22V679.19a4.13,4.13,0,0,1,4.13-4.13h7.19V654.18H83.16Z"/><path class="cls-3" d="M184.5,900.92a6.2,6.2,0,0,1,0-12.4c14.38,0,19.62-16.11,20.17-17.95,3.15-10.51,7.45-26.38,12.76-47.18a6.2,6.2,0,1,1,12,3.07c-5.43,21.26-9.65,36.85-12.9,47.67C212.84,886.48,202.23,900.92,184.5,900.92Zm-17.5,0H156.2a6.2,6.2,0,0,1,0-12.4H167a6.2,6.2,0,0,1,0,12.4Z"/><path class="cls-2" d="M153.47,683.32H90.32a4.13,4.13,0,1,1,0-8.26h63.15a4.13,4.13,0,0,1,0,8.26Z"/><path class="cls-2" d="M123.77,699.23H90.32a4.13,4.13,0,1,1,0-8.26h33.45a4.13,4.13,0,1,1,0,8.26Z"/></g></g></g></svg>