<svg height="16" viewBox="0 0 16 16" width="16" xmlns="http://www.w3.org/2000/svg"><g fill="none" transform="matrix(.41666667 0 0 .41666667 .50000001 .54313734)"><path d="m21.979542 1.5657991-11.626729 31.0762669c-.4662958 1.246329.166046 2.634686 1.412375 3.100981 1.246329.466296 2.634685-.166046 3.100981-1.412375l11.62673-31.0762668c.466295-1.2463289-.166047-2.63468547-1.412375-3.10098114-1.246329-.46629568-2.634686.16604619-3.100982 1.41237504z" fill="#6e66ff"/><path d="m31.983741 4.4810075-4.639105 12.2453595c-.401297 1.084826.1429 2.293274 1.215499 2.699145 1.072598.405872 2.267426-.144529 2.668723-1.229354l4.639104-12.2453601c.401297-1.0848252-.1429-2.2932734-1.215498-2.6991449-1.072598-.4058713-2.267426.1445294-2.668723 1.2293545z" fill="#fe585a"/><path d="m4.7711423 18.626196-4.63910463 12.034233c-.40129688 1.066121.14290035 2.253734 1.21549853 2.652608 1.0725982.398873 2.2674262-.142038 2.6687231-1.208159l4.6391046-12.034233c.4012969-1.066122-.1429003-2.253735-1.2154985-2.652608-1.0725982-.398874-2.2674262.142037-2.6687231 1.208159z" fill="#96c8eb"/><g fill="#ffb81e"><path d="m29.274482 28.660625-5.328933 2.217408c-.950146.395362-1.399887 1.486113-1.004524 2.43626s1.486114 1.399888 2.43626 1.004525l7.919533-3.295375c.364147-.151525.679597-.400295.911833-.719088.699182-.959779.487926-2.304633-.471853-3.003815l-5.690249-4.145245c-.831809-.605958-1.997349-.42287-2.603307.408939-.605958.831808-.422869 1.997348.408939 2.603306z"/><path d="m3.4510612 10.468584c-.9501466.395363-1.3998876 1.486114-1.0045247 2.43626.395363.950147 1.4861139 1.399888 2.4362605 1.004525l7.919533-3.295375c.364146-.151524.679597-.400294.911832-.7190876.699182-.9597791.487927-2.3046329-.471852-3.003815l-5.6902495-4.1452456c-.8318086-.6059578-1.9973486-.4228696-2.6033064.408939s-.4228696 1.9973486.408939 2.6033064l3.4223003 2.4930851z" transform="matrix(-1 0 0 -1 16.429596 16.441302)"/></g></g></svg>